# xmcd CD database file generated by cdsubmit
#
# Track frame offsets:
#	150
#	19725
#	38625
#	57825
#
# Disc length: 900 seconds
#
# Revision: 0
# Processed by: cddbd v1.5.2PL0 Copyright (c) Steve Scherf et al.
# Submitted via: cdsubmit 1.0 by Cameron Simpson <cs@zip.com.au>
#
DISCID=27038204
DTITLE=Jon Cleary - Hotel Room Ruffs
DYEAR=2007
DGENRE=
TTITLE0=All Right Now
TTITLE1=Feel The Need In Me
TTITLE2=I Don't Know
TTITLE3=New Area Code
EXTD=
EXTT0=
EXTT1=
EXTT2=
EXTT3=
PLAYORDER=
